<?xml version="1.0" standalone="no"?>
<!DOCTYPE svg PUBLIC "-//W3C//DTD SVG 20010904//EN"
 "http://www.w3.org/TR/2001/REC-SVG-20010904/DTD/svg10.dtd">
<svg version="1.0" xmlns="http://www.w3.org/2000/svg"
 width="200.000000pt" height="200.000000pt" viewBox="0 0 200.000000 200.000000"
 preserveAspectRatio="xMidYMid meet">

<g transform="translate(0.000000,200.000000) scale(0.100000,-0.100000)"
fill="#000000" stroke="none">
<path d="M394 1668 c9 -55 36 -115 71 -156 15 -18 85 -78 155 -132 158 -123
202 -182 221 -295 7 -41 17 -75 21 -75 5 0 20 8 35 17 44 29 53 68 53 227 l0
145 -55 20 c-31 12 -59 21 -64 21 -18 0 -91 62 -116 97 -14 21 -33 63 -42 93
-8 30 -20 61 -25 68 -7 8 -47 12 -136 12 l-125 0 7 -42z"/>
<path d="M715 1688 c22 -78 125 -158 202 -158 l34 0 -3 88 -3 87 -118 3 -119
3 7 -23z"/>
<path d="M282 1666 l-37 -34 -3 -161 c-3 -128 -1 -161 10 -161 28 0 139 -61
181 -99 40 -37 63 -76 101 -173 l15 -38 125 0 126 0 0 33 c-1 76 -66 164 -200
269 -179 141 -239 222 -248 335 -6 74 -16 78 -70 29z"/>
<path d="M240 1101 l0 -101 120 0 c110 0 120 1 120 19 0 20 -43 88 -69 109
-28 22 -105 59 -138 67 l-33 7 0 -101z"/>
<path d="M283 890 c-41 -16 -55 -70 -29 -106 11 -14 30 -20 83 -24 61 -4 68
-7 71 -27 2 -14 -2 -23 -10 -24 -7 -1 -38 -3 -68 -4 -30 -1 -61 -3 -67 -4 -7
0 -13 -10 -13 -21 0 -18 7 -20 78 -20 101 0 126 13 130 67 4 59 -14 73 -94 73
-51 0 -66 4 -71 16 -10 28 25 44 94 44 56 0 63 2 63 20 0 18 -6 20 -72 19 -40
0 -83 -4 -95 -9z"/>
<path d="M490 780 l0 -120 25 0 25 0 0 120 0 120 -25 0 -25 0 0 -120z"/>
<path d="M580 807 c0 -123 11 -139 99 -145 57 -4 61 -3 61 17 0 18 -6 21 -44
21 -24 0 -48 6 -54 13 -6 7 -12 51 -14 97 -3 79 -4 85 -25 88 -22 3 -23 1 -23
-91z"/>
<path d="M277 549 c-48 -18 -48 -91 0 -110 13 -5 44 -9 69 -9 37 0 44 -3 44
-20 0 -18 -7 -20 -70 -20 -63 0 -70 -2 -70 -20 0 -18 7 -20 75 -20 83 0 115
18 115 63 0 37 -29 55 -90 59 -47 3 -55 6 -55 23 0 18 8 20 68 23 58 2 68 6
65 20 -3 13 -16 17 -63 19 -33 1 -72 -3 -88 -8z"/>
<path d="M467 554 c-4 -4 -7 -52 -7 -106 l0 -98 25 0 26 0 -3 102 c-2 83 -6
103 -18 106 -9 1 -19 0 -23 -4z"/>
<path d="M567 549 c-48 -18 -48 -91 0 -110 13 -5 44 -9 69 -9 37 0 44 -3 44
-20 0 -18 -7 -20 -70 -20 -63 0 -70 -2 -70 -20 0 -18 7 -20 75 -20 62 0 79 4
95 20 24 24 25 48 4 78 -13 19 -24 22 -75 22 -57 0 -60 1 -57 23 3 20 9 22 71
25 58 2 68 6 65 20 -3 13 -16 17 -63 19 -33 1 -72 -3 -88 -8z"/>
<path d="M737 553 c-18 -17 -5 -33 28 -33 l35 0 0 -85 c0 -78 2 -85 20 -85 18
0 20 7 20 85 l0 85 35 0 c28 0 35 4 35 20 0 18 -7 20 -83 20 -46 0 -87 -3 -90
-7z"/>
<path d="M973 553 c-62 -12 -87 -130 -38 -178 20 -21 34 -25 85 -25 51 0 61 3
58 16 -2 11 -17 17 -50 19 -55 3 -68 10 -68 36 0 17 7 19 60 19 47 0 60 3 60
15 0 12 -13 15 -60 15 -43 0 -60 4 -60 13 0 25 24 37 73 37 41 0 48 3 45 18
-3 17 -56 25 -105 15z"/>
<path d="M1110 455 c0 -98 1 -105 20 -105 18 0 20 7 21 73 l1 72 25 -72 c21
-63 28 -73 48 -73 20 0 27 10 48 73 l25 72 1 -72 c1 -66 3 -73 21 -73 19 0 20
7 20 106 l0 105 -32 -3 c-30 -3 -33 -7 -58 -83 l-27 -80 -27 83 c-26 78 -29
82 -57 82 l-29 0 0 -105z"/>
<path d="M1433 548 c-8 -11 -53 -114 -80 -184 -10 -26 37 -16 49 11 9 21 18
25 53 25 35 0 44 -4 53 -25 11 -23 52 -37 52 -17 0 4 -19 51 -42 105 -41 97
-61 116 -85 85z m41 -85 c6 -20 4 -23 -18 -23 -30 0 -29 -2 -15 40 12 34 19
30 33 -17z"/>
<path d="M1597 549 c-48 -18 -48 -91 0 -110 13 -5 44 -9 69 -9 37 0 44 -3 44
-20 0 -18 -7 -20 -70 -20 -63 0 -70 -2 -70 -20 0 -18 7 -20 79 -20 71 0 82 2
95 22 39 55 8 95 -74 100 -47 3 -55 6 -55 23 0 18 8 20 68 23 58 2 68 6 65 20
-3 13 -16 17 -63 19 -33 1 -72 -3 -88 -8z"/>
</g>
</svg>
